<?xml version="1.0" standalone="no"?>
<!DOCTYPE svg PUBLIC "-//W3C//DTD SVG 20010904//EN"
 "http://www.w3.org/TR/2001/REC-SVG-20010904/DTD/svg10.dtd">
<svg version="1.0" xmlns="http://www.w3.org/2000/svg"
 width="500.000000pt" height="500.000000pt" viewBox="0 0 500.000000 500.000000"
 preserveAspectRatio="xMidYMid meet">

<g transform="translate(0.000000,500.000000) scale(0.100000,-0.100000)"
fill="#000000" stroke="none">
<path d="M2546 4394 c-66 -45 -90 -157 -43 -207 21 -23 106 -49 93 -29 -3 6 2
8 12 5 36 -9 76 73 50 104 -13 16 -48 17 -48 2 0 -5 -4 -8 -9 -4 -5 3 -12 1
-15 -4 -6 -9 21 -24 32 -17 4 2 7 -6 7 -19 0 -13 -3 -21 -7 -19 -4 2 -9 0 -13
-6 -12 -19 -46 -10 -76 20 -29 28 -29 30 -15 65 8 19 12 35 8 35 -4 0 1 5 11
11 9 6 15 15 11 20 -3 5 -2 9 3 8 20 -3 25 2 14 15 -8 10 -9 16 -1 21 6 4 9 1
8 -7 -2 -9 8 -12 37 -10 41 4 63 21 42 34 -23 15 -63 8 -101 -18z"/>
<path d="M2866 4359 c-36 -29 -35 -71 4 -109 32 -31 36 -49 20 -81 -13 -24
-47 -25 -72 -2 -16 15 -21 15 -28 3 -10 -16 -3 -33 11 -24 5 3 8 0 7 -8 -4
-18 59 -23 89 -7 29 16 39 45 21 66 -11 14 -11 16 1 9 10 -7 12 -3 6 15 -9 29
-35 60 -45 54 -4 -2 -6 8 -4 23 1 14 7 28 12 30 23 7 44 30 38 40 -11 18 -30
15 -60 -9z"/>
<path d="M2312 4361 c-9 -5 -13 -28 -12 -67 2 -79 2 -81 -14 -81 -7 0 -24 18
-37 39 -14 22 -30 37 -39 36 -12 -3 -15 -24 -15 -118 0 -96 3 -115 15 -115 11
0 16 14 17 59 2 33 7 64 13 70 7 7 10 6 10 -3 0 -11 3 -11 15 -1 13 11 15 10
10 -1 -3 -8 4 -30 16 -49 19 -30 23 -32 33 -18 13 18 20 205 8 237 -5 13 -11
17 -20 12z"/>
<path d="M1980 4271 c0 -15 4 -41 9 -57 5 -16 15 -50 22 -76 9 -31 16 -43 21
-35 5 7 6 1 2 -14 -6 -27 8 -45 25 -35 10 6 5 27 -29 146 -12 41 -22 81 -22
88 -2 26 -28 11 -28 -17z"/>
<path d="M3118 4278 c-14 -13 -34 -38 -43 -57 -20 -41 -22 -118 -3 -138 19
-19 114 -31 103 -13 -5 9 -4 11 4 6 14 -9 43 12 35 25 -3 5 0 8 6 7 18 -4 50
62 50 104 0 75 -93 115 -152 66z m116 -52 c8 -30 -31 -104 -64 -121 -27 -14
-72 -17 -64 -4 2 4 0 10 -6 14 -16 10 -12 60 8 94 34 61 112 71 126 17z"/>
<path d="M1772 4212 c-18 -10 -29 -21 -25 -25 4 -5 0 -5 -8 -2 -23 9 -67 -30
-53 -45 9 -9 17 -9 32 -1 14 7 23 8 27 1 4 -6 11 -8 16 -5 5 3 6 0 3 -8 -7
-20 58 -141 79 -145 16 -3 16 -1 0 42 -10 25 -21 46 -26 46 -4 0 -6 4 -3 9 3
5 -1 22 -9 37 -16 32 -20 79 -6 70 12 -8 34 21 26 34 -8 13 -14 12 -53 -8z
m-58 -50 c3 -5 -1 -9 -9 -9 -8 0 -12 4 -9 9 3 4 7 8 9 8 2 0 6 -4 9 -8z m67
-55 c-10 -9 -11 -8 -5 6 3 10 9 15 12 12 3 -3 0 -11 -7 -18z"/>
<path d="M3402 4095 c-18 -20 -29 -41 -26 -48 4 -7 4 -9 -1 -5 -4 4 -19 -7
-32 -24 -12 -18 -23 -28 -23 -22 0 8 -17 -17 -36 -54 -10 -20 14 -41 26 -22 5
8 6 18 3 24 -3 5 -1 6 5 2 6 -3 18 7 28 23 10 16 28 31 40 34 13 2 21 1 19 -3
-7 -11 43 -30 60 -24 24 10 18 25 -15 37 -16 6 -30 17 -30 25 0 7 -4 10 -10 7
-23 -14 -8 5 20 25 27 19 31 20 66 5 46 -19 64 -19 64 1 0 15 -49 40 -99 50
-22 5 -33 -1 -59 -31z m88 5 c0 -5 -5 -10 -11 -10 -5 0 -7 5 -4 10 3 6 8 10
11 10 2 0 4 -4 4 -10z"/>
<path d="M1514 4043 c-13 -13 -15 -29 -11 -75 5 -60 45 -171 58 -163 4 3 5 -3
2 -14 -3 -11 2 -21 12 -25 28 -10 36 4 19 35 -21 42 -15 72 19 84 24 8 31 6
45 -11 9 -11 23 -19 30 -18 6 1 15 2 19 3 4 0 -2 8 -13 17 -10 8 -12 12 -4 8
15 -8 -13 28 -77 100 -26 28 -38 35 -46 27 -15 -15 -24 -14 -31 5 -5 13 -4 14
7 6 14 -12 27 -7 27 9 0 5 -9 13 -19 19 -15 8 -24 6 -37 -7z m63 -75 c31 -29
30 -56 -2 -64 -14 -4 -28 -5 -29 -3 -11 11 -9 89 1 89 4 0 17 -10 30 -22z"/>
<path d="M3684 3969 c-3 -6 0 -22 7 -36 13 -24 11 -28 -54 -88 -67 -64 -76
-78 -57 -90 13 -8 42 14 34 26 -3 5 0 8 8 7 7 -2 12 3 10 10 -1 8 2 11 7 8 5
-4 27 12 47 34 41 44 59 49 81 23 8 -11 11 -12 7 -3 -7 13 -5 13 9 1 15 -12
17 -11 17 6 0 11 -22 41 -50 67 -54 50 -56 51 -66 35z"/>
<path d="M1270 3797 c-14 -7 -26 -21 -28 -31 -6 -28 8 -87 19 -81 5 4 9 0 9
-7 0 -17 111 -138 127 -138 26 0 22 20 -12 57 -19 21 -35 43 -35 49 0 15 24
24 66 24 20 0 34 5 34 13 0 9 2 9 8 -1 11 -17 42 -5 35 13 -3 10 -21 14 -56
14 -77 -1 -77 -1 -77 29 -1 52 -45 82 -90 59z m48 -44 c0 -10 -1 -29 -4 -41
-4 -20 -7 -22 -19 -12 -15 13 -20 51 -8 63 12 13 30 7 31 -10z"/>
<path d="M1643 3604 c-71 -35 -68 -5 -71 -639 -2 -511 -1 -574 14 -614 24 -63
68 -80 207 -81 59 0 107 -4 107 -9 0 -4 -61 -9 -135 -9 -189 -1 -197 -5 -308
-162 -48 -67 -86 -124 -84 -126 2 -2 554 -3 1226 -2 l1223 3 -84 120 c-111
160 -124 167 -313 167 -95 0 -135 3 -135 11 0 9 31 11 107 9 120 -3 159 9 197
61 21 28 21 38 21 610 0 560 -1 583 -20 614 -39 66 12 63 -1002 63 -816 0
-922 -2 -950 -16z m985 -71 c4 -29 -28 -47 -53 -29 -12 9 -15 19 -10 35 9 30
59 26 63 -6z m902 -598 l0 -535 -935 0 -935 0 0 528 c0 291 3 532 7 535 3 4
424 7 935 7 l928 0 0 -535z m-654 -672 c-11 -11 -566 -12 -566 -2 0 5 128 9
287 9 157 0 283 -3 279 -7z"/>
<path d="M2009 3338 c0 -2 -2 -12 -4 -23 -2 -11 -7 -34 -10 -52 -7 -37 -20
-32 154 -63 63 -11 117 -18 119 -15 10 9 15 115 6 115 -5 0 -62 9 -127 20
-118 20 -136 22 -138 18z m179 -59 c56 -10 62 -13 62 -35 0 -18 -5 -24 -22
-24 -23 0 -201 29 -205 34 -1 1 1 12 4 25 7 26 13 26 161 0z"/>
<path d="M3351 3249 c8 -4 4 -9 -10 -14 -31 -10 -58 -52 -42 -68 10 -9 11 -8
6 4 -4 12 5 26 31 45 91 70 191 3 140 -94 -59 -113 -212 -124 -232 -17 -5 26
0 45 20 82 l26 48 -25 -30 c-54 -65 -39 -152 32 -182 51 -21 105 -4 160 52 39
39 43 47 43 93 0 45 -3 54 -27 69 -17 11 -47 18 -80 19 -30 0 -48 -3 -42 -7z"/>
<path d="M2575 3230 c-13 -14 -31 -20 -61 -20 -55 0 -74 -8 -74 -31 0 -15 -7
-19 -40 -19 -34 0 -41 -4 -46 -25 -4 -14 -2 -162 2 -328 l9 -302 265 0 265 0
0 325 0 325 -40 3 c-31 2 -43 8 -50 25 -8 17 -20 23 -56 25 -31 2 -53 10 -64
23 -24 26 -86 26 -110 -1z m94 -21 c20 -22 36 -27 89 -28 31 -1 33 -3 30 -33
l-3 -33 -160 0 -160 0 -3 33 -3 32 49 0 c39 0 53 5 72 25 29 30 63 32 89 4z
m-227 -91 c3 -23 4 -23 183 -23 179 0 180 0 183 23 3 18 10 22 36 22 l33 0 6
-182 c9 -227 9 -402 1 -422 -5 -14 -38 -16 -260 -16 l-254 0 0 310 0 310 34 0
c28 0 35 -4 38 -22z"/>
<path d="M2610 3165 c0 -8 7 -15 15 -15 8 0 15 7 15 15 0 8 -7 15 -15 15 -8 0
-15 -7 -15 -15z"/>
<path d="M2541 2995 c-19 -19 -29 -22 -47 -14 -28 10 -31 -1 -6 -31 16 -20 52
-20 52 0 0 5 12 22 26 39 31 37 11 42 -25 6z"/>
<path d="M2647 2983 c-18 -18 0 -23 78 -23 69 0 85 3 85 15 0 12 -15 15 -78
15 -43 0 -82 -3 -85 -7z"/>
<path d="M2544 2851 c-22 -24 -31 -28 -47 -20 -25 14 -30 7 -11 -19 22 -31 35
-27 71 24 37 50 29 59 -13 15z"/>
<path d="M2643 2828 c2 -9 28 -13 82 -13 54 0 80 4 83 13 3 9 -18 12 -83 12
-65 0 -86 -3 -82 -12z"/>
<path d="M2545 2706 c-21 -17 -37 -23 -54 -19 -23 6 -23 5 -6 -21 22 -33 27
-33 57 7 48 63 48 69 3 33z"/>
<path d="M2647 2694 c-16 -17 10 -24 84 -24 64 0 79 3 79 15 0 12 -15 15 -78
15 -43 0 -82 -3 -85 -6z"/>
<path d="M3305 3240 c-3 -6 1 -7 9 -4 18 7 21 14 7 14 -6 0 -13 -4 -16 -10z"/>
<path d="M3403 3184 c-8 -18 -7 -23 7 -27 22 -6 33 23 16 39 -9 8 -15 5 -23
-12z"/>
<path d="M1710 3181 c0 -11 4 -22 10 -26 5 -3 7 -12 4 -19 -3 -8 9 -30 27 -50
17 -20 29 -39 25 -43 -3 -3 -1 -12 5 -19 7 -8 7 -14 -1 -19 -12 -8 -13 -25 -1
-25 5 0 17 7 26 16 14 15 14 17 -2 29 -14 11 -15 15 -4 28 10 13 16 14 26 4 7
-6 10 -19 7 -27 -4 -11 -2 -12 7 -4 9 8 21 2 48 -23 20 -18 44 -33 52 -33 9 0
0 10 -19 21 -41 25 -50 37 -43 57 5 11 1 13 -16 7 -14 -4 -23 -2 -27 9 -7 17
-34 22 -34 6 0 -5 -5 -10 -11 -10 -8 0 -8 4 0 14 14 17 -12 86 -33 86 -8 0
-18 9 -21 20 -8 26 -25 26 -25 1z m60 -61 c0 -5 -4 -10 -10 -10 -5 0 -10 5
-10 10 0 6 5 10 10 10 6 0 10 -4 10 -10z"/>
<path d="M3324 3153 c-7 -27 -8 -57 -3 -68 7 -19 8 -19 8 3 1 30 28 39 47 16
14 -18 15 -18 8 5 -11 42 -34 91 -42 91 -4 0 -12 -21 -18 -47z m29 2 c4 -8 2
-17 -3 -20 -6 -4 -10 3 -10 14 0 25 6 27 13 6z"/>
<path d="M2170 3051 c-15 -29 -12 -68 6 -75 22 -8 36 -7 30 2 -3 4 -1 24 3 44
7 29 5 38 -6 42 -21 8 -21 8 -33 -13z"/>
<path d="M3210 2995 c-6 -8 -9 -18 -6 -24 3 -5 1 -22 -5 -38 -8 -22 -8 -25 2
-16 7 7 12 25 12 41 0 25 4 28 24 24 16 -3 23 0 23 12 0 20 -33 21 -50 1z"/>
<path d="M2919 2998 c-5 -17 -6 -59 -1 -48 4 9 14 15 22 15 17 -1 31 15 24 27
-5 7 -43 12 -45 6z"/>
<path d="M3061 2973 c-27 -23 -43 -77 -28 -92 14 -14 47 -14 47 -1 0 6 -7 13
-15 16 -22 9 -18 24 5 24 14 0 18 5 13 16 -4 12 0 15 18 12 20 -2 24 -9 24
-35 0 -20 5 -33 12 -33 16 0 38 41 26 49 -5 3 -16 18 -26 34 -20 31 -46 35
-76 10z"/>
<path d="M1805 2953 c3 -16 11 -29 16 -31 5 -2 9 -12 9 -22 0 -10 4 -21 9 -24
4 -3 6 6 3 19 -2 14 -8 28 -13 31 -5 3 -9 16 -9 30 0 13 -5 24 -11 24 -7 0 -9
-10 -4 -27z"/>
<path d="M3106 2923 c-6 -14 -5 -15 5 -6 7 7 10 15 7 18 -3 3 -9 -2 -12 -12z"/>
<path d="M3087 2899 c7 -7 15 -10 18 -7 3 3 -2 9 -12 12 -14 6 -15 5 -6 -5z"/>
<path d="M1943 2843 c-37 -33 -41 -40 -29 -55 18 -25 33 -22 40 6 4 16 15 25
33 29 16 3 38 8 51 12 19 6 22 4 22 -18 0 -20 -6 -27 -30 -32 -50 -11 -34 -25
28 -25 70 0 79 6 48 31 -16 13 -22 26 -19 42 4 20 0 25 -25 30 -16 3 -40 9
-53 12 -18 4 -34 -4 -66 -32z"/>
<path d="M2996 2853 c-4 -9 -2 -21 4 -27 7 -7 10 -2 10 17 0 31 -5 34 -14 10z"/>
<path d="M3176 2855 c4 -8 10 -12 15 -9 11 6 2 24 -11 24 -5 0 -7 -7 -4 -15z"/>
<path d="M3088 2853 c6 -2 18 -2 25 0 6 3 1 5 -13 5 -14 0 -19 -2 -12 -5z"/>
<path d="M3095 2752 c-37 -7 -35 -18 3 -14 20 2 41 5 47 6 17 5 -30 12 -50 8z"/>
<path d="M1827 2714 c-4 -4 -7 -20 -7 -35 0 -18 6 -28 20 -32 14 -4 20 -14 20
-35 0 -37 15 -49 64 -53 l40 -4 0 40 1 40 60 -2 60 -1 0 39 1 39 -106 0 c-58
0 -114 3 -125 6 -11 3 -24 2 -28 -2z"/>
<path d="M3060 2705 c-7 -9 -8 -15 -2 -15 5 0 12 7 16 15 3 8 4 15 2 15 -2 0
-9 -7 -16 -15z"/>
<path d="M3140 2710 c0 -5 5 -10 10 -10 6 0 10 5 10 10 0 6 -4 10 -10 10 -5 0
-10 -4 -10 -10z"/>
<path d="M1830 2545 c0 -8 0 -18 -1 -22 0 -4 4 -9 10 -11 6 -2 11 8 11 22 0
14 -4 26 -10 26 -5 0 -10 -7 -10 -15z"/>
<path d="M1987 2530 c-7 -28 3 -60 19 -60 10 0 14 13 14 40 0 43 -23 57 -33
20z"/>
<path d="M623 2650 c0 -25 2 -35 4 -22 2 12 2 32 0 45 -2 12 -4 2 -4 -23z"/>
<path d="M4422 2640 c0 -14 2 -19 5 -12 2 6 2 18 0 25 -3 6 -5 1 -5 -13z"/>
<path d="M621 2584 c0 -11 3 -14 6 -6 3 7 2 16 -1 19 -3 4 -6 -2 -5 -13z"/>
<path d="M945 2400 c-14 -26 -14 -34 -1 -65 24 -57 102 -61 131 -5 21 41 33
45 60 20 26 -24 45 -20 45 10 0 52 -104 67 -127 19 -17 -36 -39 -53 -59 -45
-13 5 -15 15 -10 45 8 51 -17 64 -39 21z"/>
<path d="M4165 2420 c-11 -4 -31 -20 -45 -35 l-25 -26 -21 27 c-14 17 -28 25
-38 21 -43 -17 9 -87 65 -87 19 0 34 9 49 30 37 52 89 29 60 -26 -19 -35 1
-55 30 -29 55 50 -7 153 -75 125z"/>
<path d="M4006 2261 c-4 -5 -9 -29 -12 -53 l-6 -45 88 -32 c117 -43 111 -42
122 -28 5 7 14 36 19 65 8 43 8 55 -3 59 -21 8 -32 -5 -39 -46 -5 -32 -10 -38
-26 -34 -14 4 -19 14 -19 39 0 39 -20 46 -41 13 -9 -13 -20 -18 -31 -14 -15 6
-17 15 -12 46 6 35 4 39 -14 39 -12 0 -23 -4 -26 -9z"/>
<path d="M1069 2251 c-73 -24 -99 -62 -78 -113 15 -36 56 -58 109 -58 100 0
154 80 97 145 -24 29 -83 41 -128 26z m93 -67 c11 -23 10 -29 -11 -45 -41 -33
-121 -15 -121 27 0 21 42 44 82 44 32 0 41 -5 50 -26z"/>
<path d="M3997 2093 c-17 -16 -3 -34 43 -59 55 -30 55 -41 0 -46 -23 -2 -35
-8 -35 -18 0 -20 134 -110 159 -107 36 4 27 25 -21 54 l-48 28 48 8 c73 14 64
36 -42 96 -95 55 -94 54 -104 44z"/>
<path d="M1098 2016 c-92 -23 -120 -38 -102 -56 8 -8 25 -8 55 -1 37 9 46 8
54 -5 29 -47 44 -59 56 -47 10 10 10 18 0 39 -10 22 -9 29 1 35 23 15 33 10
56 -32 24 -42 45 -47 50 -13 3 23 -52 105 -71 103 -6 -1 -51 -11 -99 -23z"/>
<path d="M1375 1918 c4 -9 19 -25 33 -35 26 -17 86 -18 1162 -21 624 -1 1150
1 1170 5 19 5 -495 10 -1142 13 l-1176 5 -27 25 c-17 16 -24 19 -20 8z"/>
<path d="M3904 1890 c-55 -22 -69 -90 -29 -138 39 -47 90 -67 136 -53 85 25
61 145 -38 187 -37 16 -40 16 -69 4z m85 -66 c53 -44 32 -105 -28 -82 -40 15
-61 39 -61 69 0 45 43 52 89 13z"/>
<path d="M1264 1857 c6 -34 6 -34 -58 -61 -74 -32 -93 -48 -73 -64 9 -8 32 -2
87 23 l75 34 13 -25 c18 -33 37 -25 35 15 -1 39 -47 111 -69 111 -13 0 -15 -7
-10 -33z"/>
<path d="M1310 1688 c-88 -60 -118 -112 -85 -148 9 -10 24 -34 33 -52 29 -56
99 -49 190 19 33 25 43 53 17 53 -8 0 -34 -13 -57 -30 -74 -51 -139 -50 -92 2
22 24 2 53 -26 38 -25 -13 -30 -13 -30 3 0 15 51 65 93 91 27 16 34 46 12 52
-5 2 -30 -11 -55 -28z"/>
<path d="M3805 1710 c-9 -15 4 -29 90 -95 68 -52 101 -63 93 -30 -4 16 -149
135 -165 135 -6 0 -15 -5 -18 -10z"/>
<path d="M3736 1608 c-36 -51 -6 -146 52 -166 22 -8 37 -6 62 6 39 19 70 76
52 94 -10 10 -19 4 -43 -25 -31 -38 -59 -47 -77 -24 -20 25 -23 57 -8 88 25
49 -7 71 -38 27z"/>
<path d="M3611 1467 c-6 -14 -5 -42 0 -69 12 -57 68 -152 92 -156 20 -4 23 19
5 48 -10 15 -9 23 7 40 17 18 20 19 41 5 30 -19 44 -19 44 1 0 24 -135 154
-160 154 -12 0 -24 -9 -29 -23z m73 -66 c15 -16 15 -20 1 -31 -12 -10 -16 -8
-25 15 -5 14 -10 28 -10 31 0 10 18 2 34 -15z"/>
<path d="M1545 1463 c-50 -6 -170 -76 -173 -101 -4 -26 10 -28 44 -5 24 15 26
15 47 -5 20 -20 20 -22 4 -40 -20 -22 -22 -38 -5 -48 15 -9 158 143 158 168 0
14 -31 42 -42 36 -2 0 -17 -3 -33 -5z m5 -51 c0 -20 -28 -45 -44 -39 -23 9
-20 26 7 37 29 11 37 12 37 2z"/>
<path d="M3473 1355 c-58 -41 -46 -159 18 -185 35 -15 92 2 114 33 35 49 3 64
-47 22 -27 -23 -33 -24 -52 -12 -30 20 -33 73 -5 103 12 13 19 30 16 38 -8 20
-17 20 -44 1z"/>
<path d="M1636 1340 c-32 -20 -126 -126 -126 -140 0 -25 26 -18 61 16 43 42
45 40 57 -42 5 -34 12 -49 22 -49 12 0 15 13 15 57 0 55 1 58 27 64 57 12 75
57 38 94 -25 25 -57 25 -94 0z m64 -39 c0 -12 -29 -23 -41 -15 -5 3 -7 10 -4
15 8 12 45 12 45 0z"/>
<path d="M1786 1193 c-36 -48 -63 -90 -59 -94 11 -11 102 -59 112 -59 5 0 12
7 15 15 4 11 -6 22 -29 36 -19 12 -35 27 -35 35 0 20 27 29 45 14 29 -24 47
10 20 40 -14 15 -14 18 0 30 13 11 20 11 40 0 27 -14 59 -7 53 13 -4 11 -75
56 -89 57 -3 0 -36 -39 -73 -87z"/>
<path d="M3334 1257 c-6 -16 68 -181 86 -192 6 -4 17 -2 22 3 8 8 -2 39 -32
107 -41 89 -64 113 -76 82z"/>
<path d="M3210 1189 c-47 -34 -46 -27 -9 -149 25 -85 37 -103 58 -91 12 8 12
16 1 55 -7 26 -11 48 -9 49 2 2 16 11 32 20 15 10 27 25 27 33 0 13 -6 15 -27
10 -51 -12 -58 -11 -61 9 -2 13 9 28 33 44 19 13 35 30 35 37 0 23 -35 16 -80
-17z"/>
<path d="M2035 1074 c-42 -109 -40 -119 27 -116 84 5 122 37 120 103 -1 35
-49 92 -88 103 -20 6 -25 -3 -59 -90z m105 -20 c0 -25 -34 -54 -62 -54 -23 0
-22 14 2 69 20 43 21 43 40 26 11 -10 20 -28 20 -41z"/>
<path d="M3080 1140 c-12 -8 -12 -19 4 -82 11 -40 25 -88 33 -107 12 -30 15
-33 28 -20 12 12 11 26 -10 108 -26 102 -33 115 -55 101z"/>
<path d="M2261 1088 c-55 -151 -63 -180 -55 -188 5 -5 36 -11 69 -12 48 -2 60
0 60 12 0 9 -15 19 -38 24 -30 8 -37 14 -35 30 2 16 9 20 30 18 36 -4 46 17
18 38 -35 26 -20 52 27 48 28 -2 38 1 41 14 2 12 -7 20 -35 27 -56 16 -73 14
-82 -11z"/>
<path d="M2771 1053 c-39 -49 -70 -203 -45 -223 20 -17 34 -3 34 36 0 31 3 34
29 34 25 0 31 -5 36 -30 6 -29 28 -40 40 -20 7 12 -11 149 -26 198 -13 40 -40
42 -68 5z m39 -84 c0 -22 -5 -29 -20 -29 -23 0 -23 -2 -9 38 13 38 29 33 29
-9z"/>
<path d="M2898 1068 c-6 -16 20 -170 30 -180 11 -11 132 42 132 59 0 22 -26
26 -59 8 -18 -9 -35 -13 -40 -11 -5 3 -12 35 -16 71 -5 54 -10 65 -25 65 -10
0 -20 -5 -22 -12z"/>
<path d="M2562 1040 c-38 -23 -66 -81 -57 -117 11 -46 41 -64 98 -61 44 3 52
6 52 23 0 17 -7 20 -44 20 -53 0 -70 19 -55 62 7 21 20 31 52 42 31 9 42 18
40 30 -5 24 -48 24 -86 1z"/>
</g>
</svg>
